<svg xmlns="http://www.w3.org/2000/svg" width="512" height="512"><path fill="#fefefe" d="m255.25-.375 3.067.002C274.849-.333 290.774.583 307 4l3.125.65C356.357 14.574 398.972 37.225 433 70l1.998 1.916C444.486 81.06 453.226 90.357 461 101l2.574 3.453c6.038 8.191 11.397 16.705 16.426 25.547l1.104 1.915C496.034 158 505.514 187.335 510 217l.535 3.401c1.657 11.613 1.864 23.13 1.84 34.849l-.002 3.067c-.04 16.532-.956 32.457-4.373 48.683l-.65 3.125C497.426 356.357 474.775 398.972 442 433l-1.916 1.998C430.94 444.486 421.643 453.226 411 461l-3.453 2.574C399.356 469.612 390.842 474.971 382 480l-1.915 1.104C354 496.034 324.665 505.514 295 510l-3.401.535c-11.613 1.657-23.13 1.864-34.849 1.84l-3.067-.002c-16.532-.04-32.457-.956-48.683-4.373l-3.125-.65C155.643 497.426 113.028 474.775 79 442l-1.998-1.916C67.514 430.94 58.774 421.643 51 411l-2.574-3.453C42.388 399.356 37.029 390.842 32 382l-1.104-1.915C15.966 354 6.486 324.665 2 295l-.535-3.401C-.192 279.986-.4 268.469-.375 256.75l.002-3.067C-.333 237.151.583 221.226 4 205l.65-3.125C14.574 155.643 37.225 113.028 70 79l1.916-1.998C81.06 67.514 90.357 58.774 101 51l3.453-2.574C112.644 42.388 121.158 37.029 130 32l1.915-1.104C158 15.966 187.335 6.486 217 2l3.401-.535C232.014-.192 243.531-.4 255.25-.375"/><path fill="#232323" d="m214.781 101.498 2.934-.016c3.19-.013 6.38.004 9.57.022q3.332 0 6.665-.005 6.976 0 13.953.034c5.96.029 11.921.026 17.882.013 4.585-.007 9.17.001 13.756.014q3.297.006 6.594 0c3.071-.002 6.142.014 9.213.036l2.75-.014c5.251.062 9 .516 12.902 4.418.761 5.076.761 5.076 0 8-4.078 4.16-9.525 5.576-15 7l-2 2c.325 6.31 2.072 11.893 4.105 17.84l.972 2.9c1.03 3.068 2.07 6.133 3.11 9.197q.974 2.894 1.944 5.788c4.171 12.41 8.412 24.796 12.647 37.185l.894 2.613.902 2.638c6.277 18.367 12.486 36.757 18.68 55.153q4.7 13.959 9.406 27.916l.947 2.808a42538 42538 0 0 0 19.698 58.324c5.244 15.546 5.244 15.546 10.617 31.048l1.08 3.075c2.394 6.037 5.155 8.797 11.092 11.378 2.315.962 4.635 1.88 6.989 2.742l2.214.817 2.01.706C403 396 403 396 405 399c.554 6.208.554 6.208-1.312 8.875-2.865 1.91-5.392 2.253-8.736 2.279l-2.489.026-2.72.013-2.874.025q-4.711.035-9.424.055l-3.249.017q-8.508.039-17.018.06c-5.863.017-11.727.062-17.59.112-4.505.034-9.01.046-13.517.051q-3.242.01-6.485.046c-3.024.032-6.046.032-9.07.024l-2.708.05c-4.427-.044-6.247-.203-9.868-2.978C296 405 296 405 295.438 401.937c.705-3.685 1.523-4.755 4.562-6.937 5.48-2.099 11.215-2.675 17.012-3.438 2.748-.517 4.553-1.266 6.988-2.562.29-6.722-.535-11.896-2.71-18.23l-.87-2.638c-.92-2.778-1.857-5.549-2.795-8.32l-1.77-5.33c-1.939-5.831-3.897-11.656-5.855-17.482l-10-30H183l-9.937 30.187-3.137 9.513-2.453 7.468c-.32.965-.32.965-.644 1.949q-.944 2.856-1.88 5.716l-1.07 3.25c-1.676 5.56-2.768 11.121-1.879 16.917 3.46 5.66 7.927 7.973 14.173 9.548 3.102.655 6.212 1.254 9.33 1.825 4.762.96 8.015 2 11.497 5.627.58 3.478.43 5.242-1.312 8.312-3.418 3.418-7.683 2.854-12.201 2.88l-2.312.026q-3.787.035-7.573.055l-2.614.017q-6.846.039-13.692.06-5.665.02-11.331.082c-4.562.05-9.123.074-13.685.081q-2.606.01-5.213.046c-2.432.032-4.862.032-7.295.024l-2.17.05c-3.847-.048-5.503-.556-8.576-2.947C107 405 107 405 106.813 401.437c1.177-3.408 1.935-4.707 5.042-6.476 3.924-1.758 7.966-3.202 12.024-4.617 7.57-3.26 9.858-8.135 13.121-15.344 1.278-3.245 2.387-6.532 3.467-9.848l.939-2.82a2815 2815 0 0 0 3.028-9.18q1.08-3.261 2.164-6.523a9525 9525 0 0 0 5.69-17.21c2.984-9.04 5.98-18.077 8.976-27.115q1.108-3.34 2.214-6.682a4337 4337 0 0 1 16.867-49.98c3.845-11.174 7.532-22.394 11.155-33.642a2377 2377 0 0 1 15.656-46.787A2122 2122 0 0 0 212 151l.867-2.549a931 931 0 0 0 2.543-7.65l.79-2.319c1.62-5.01 2.192-9.21 1.8-14.482-3.142-3.564-7.93-4.44-12.344-5.84-2.989-1.305-4.607-2.634-6.656-5.16-.625-3.5-.625-3.5 0-7 4.974-4.482 9.28-4.571 15.781-4.502"/><path fill="#fcfcfc" d="M241 131c2.522 2.522 3.048 4.647 4.177 8.036l.636 1.894q1.054 3.153 2.096 6.31l1.508 4.513a5886 5886 0 0 1 4.084 12.28c1.42 4.277 2.847 8.553 4.272 12.829q3.59 10.772 7.167 21.548a22114 22114 0 0 0 8.3 24.938q3.992 11.976 7.977 23.956 1.698 5.106 3.4 10.21 2 6.007 3.993 12.017l1.47 4.42q1.004 3.005 1.997 6.013l1.132 3.406C294 286 294 286 294 288H189c3.375-12.375 3.375-12.375 5.176-17.776l1.232-3.709 1.323-3.95 1.415-4.252q1.906-5.72 3.818-11.44 2.003-6 4.002-12 3.354-10.06 6.713-20.116 3.884-11.632 7.763-23.267a73030 73030 0 0 1 10.655-31.947q1.866-5.598 3.738-11.196l1.372-4.115q.934-2.8 1.87-5.599l1.059-3.169C240 133 240 133 241 131"/></svg>